<?xml version="1.0" standalone="no"?>
<!DOCTYPE svg PUBLIC "-//W3C//DTD SVG 20010904//EN"
 "http://www.w3.org/TR/2001/REC-SVG-20010904/DTD/svg10.dtd">
<svg version="1.0" xmlns="http://www.w3.org/2000/svg"
 width="512.000000pt" height="512.000000pt" viewBox="0 0 512.000000 512.000000"
 preserveAspectRatio="xMidYMid meet">

<g transform="translate(0.000000,512.000000) scale(0.100000,-0.100000)"
fill="#000" stroke="none">
<path d="M1910 4597 c-99 -36 -239 -111 -306 -165 l-59 -48 -50 13 c-165 42
-355 38 -525 -11 l-85 -25 -55 38 c-71 50 -155 91 -255 127 -105 37 -228 41
-272 8 -54 -41 -68 -79 -68 -189 1 -122 23 -234 75 -371 l38 -103 -8 -148 c-5
-81 -12 -191 -15 -243 -8 -111 8 -196 55 -294 35 -74 110 -176 173 -233 l46
-43 -9 -57 c-14 -84 -12 -170 4 -202 18 -34 81 -91 101 -91 18 0 18 -5 4 -69
-19 -91 23 -175 107 -212 l41 -19 5 -84 c4 -70 9 -91 31 -125 36 -55 90 -81
166 -81 59 0 61 -1 111 -51 28 -28 50 -52 48 -53 -2 -1 -29 -21 -61 -45 -181
-137 -264 -367 -212 -591 22 -92 95 -233 164 -316 124 -149 374 -300 588 -354
236 -60 355 -65 1038 -42 483 16 725 29 895 48 405 44 808 157 959 268 223
164 339 527 303 949 -15 174 -32 257 -84 411 -114 340 -306 716 -503 988 -97
134 -301 332 -430 417 -403 265 -902 387 -1500 367 -110 -4 -209 -8 -220 -9
-23 -2 -23 -5 10 109 49 170 59 387 21 467 -41 84 -142 109 -266 64z m85 -259
c-9 -99 -22 -168 -52 -268 -32 -106 -32 -160 1 -392 44 -302 41 -314 -112
-471 -36 -38 -113 -103 -169 -145 -76 -56 -106 -85 -113 -108 -15 -43 -4 -79
32 -109 41 -35 84 -33 138 6 39 29 44 25 15 -11 -32 -40 -22 -94 28 -162 13
-18 27 -39 31 -45 5 -9 -20 -25 -76 -51 -61 -28 -87 -46 -96 -66 -17 -38 -16
-51 17 -149 l30 -87 -52 0 c-29 -1 -63 -7 -76 -14 -27 -15 -111 -166 -111
-201 0 -12 11 -38 24 -58 l24 -35 -30 -6 c-35 -7 -67 18 -198 155 -79 84 -102
93 -164 69 -14 -5 -26 -8 -27 -7 -1 1 -4 55 -8 121 -7 117 -7 118 -39 147 -23
20 -43 29 -67 29 -41 0 -42 5 -20 95 22 91 19 120 -14 157 -26 29 -35 33 -78
32 l-49 -2 14 103 c18 124 11 149 -50 191 -99 69 -198 213 -216 314 -5 26 -3
111 4 200 20 257 18 329 -12 413 -49 133 -75 232 -81 301 l-6 69 29 -7 c93
-23 216 -90 328 -176 46 -35 72 -37 145 -10 164 63 336 76 496 38 50 -11 111
-23 137 -25 45 -5 48 -3 107 51 34 31 85 71 114 90 49 31 182 95 200 96 5 0 5
-33 2 -72z m925 -602 c518 -81 909 -291 1175 -631 154 -197 324 -504 443 -800
121 -302 147 -433 139 -704 -4 -146 -9 -193 -30 -273 -47 -177 -133 -306 -243
-361 -173 -87 -508 -167 -844 -201 -324 -33 -1567 -73 -1589 -51 -2 2 5 23 14
47 10 24 26 83 35 133 16 88 17 90 60 122 92 68 133 108 151 147 27 60 24 136
-10 232 l-29 82 22 63 c11 35 22 66 23 67 1 2 55 -17 120 -43 126 -51 334
-152 644 -315 429 -226 623 -290 876 -290 183 0 377 51 428 112 33 39 33 87 0
126 -37 44 -69 47 -150 16 -140 -53 -271 -65 -421 -39 -185 33 -295 77 -685
281 -293 153 -560 284 -577 284 -28 0 -19 264 14 399 57 237 226 424 450 497
84 27 99 29 249 28 153 0 164 -2 256 -32 112 -37 137 -39 172 -12 55 43 56
116 1 159 -28 22 -136 59 -239 82 -99 22 -343 17 -440 -10 -304 -82 -531 -296
-626 -590 -35 -109 -59 -255 -59 -358 0 -40 -2 -73 -3 -73 -2 0 -63 23 -135
50 -157 60 -297 95 -415 105 l-87 7 23 42 c22 40 23 41 88 47 76 6 118 31 143
83 22 46 20 121 -3 189 -22 64 -20 67 47 82 72 15 132 111 118 187 -3 19 -22
61 -41 93 l-36 58 25 26 c52 54 59 122 21 190 -14 23 -25 47 -25 53 0 5 29 41
64 80 77 84 121 169 138 265 10 60 9 89 -6 189 -9 66 -19 131 -22 146 -5 26
-3 27 43 31 117 11 630 -1 733 -17z m-1127 -1971 c40 -8 104 -25 142 -38 62
-21 70 -27 81 -60 11 -31 10 -44 -7 -91 -26 -77 -24 -123 12 -229 l32 -91 -25
-20 c-14 -12 -51 -40 -81 -63 -82 -62 -104 -101 -123 -219 -9 -54 -20 -103
-24 -107 -4 -5 -48 -17 -98 -28 l-91 -20 -73 37 c-235 118 -378 285 -410 476
-33 202 120 394 358 452 79 19 218 19 307 1z"/>
<path d="M1502 3760 c-60 -37 -90 -118 -62 -171 9 -16 22 -19 82 -19 124 0
190 50 190 145 0 24 -3 49 -7 55 -3 5 -42 10 -88 10 -64 0 -89 -4 -115 -20z"/>
<path d="M775 3740 c-22 -24 -16 -91 12 -129 41 -54 64 -63 158 -62 49 1 94 6
102 12 20 17 16 89 -7 127 -33 54 -73 72 -166 72 -68 0 -84 -3 -99 -20z"/>
<path d="M1205 3533 c-11 -2 -30 -6 -42 -9 -49 -10 -65 -93 -26 -136 14 -16
14 -20 0 -42 -9 -13 -26 -27 -37 -31 -23 -7 -67 17 -77 41 -7 18 -55 44 -83
44 -55 0 -100 -49 -100 -110 0 -39 54 -107 114 -145 40 -24 62 -30 120 -33 64
-3 77 -1 129 27 l58 31 42 -22 c56 -30 175 -32 227 -4 72 37 140 124 140 176
0 33 -26 75 -55 88 -53 24 -83 16 -135 -38 -27 -27 -52 -50 -58 -50 -15 0 -62
40 -62 54 0 7 7 26 15 43 20 40 4 88 -36 108 -26 14 -89 18 -134 8z"/>
</g>
</svg>
