<svg width="64" height="64" viewBox="0 0 64 64" fill="none" xmlns="http://www.w3.org/2000/svg">
  <rect width="64" height="64" rx="16" fill="#FF6B35"/>
  <path d="M20 24C20 20.6863 22.6863 18 26 18H38C41.3137 18 44 20.6863 44 24V40C44 43.3137 41.3137 46 38 46H26C22.6863 46 20 43.3137 20 40V24Z" fill="white"/>
  <circle cx="28" cy="28" r="3" fill="#FF6B35"/>
  <circle cx="36" cy="28" r="3" fill="#FF6B35"/>
  <path d="M28 36C28 37.1046 28.8954 38 30 38H34C35.1046 38 36 37.1046 36 36V34H28V36Z" fill="#FF6B35"/>
  <path d="M24 16C24 14.8954 24.8954 14 26 14C27.1046 14 28 14.8954 28 16V20H24V16Z" fill="#FF6B35"/>
  <path d="M36 16C36 14.8954 36.8954 14 38 14C39.1046 14 40 14.8954 40 16V20H36V16Z" fill="#FF6B35"/>
</svg>
